:version 1.10
:name ASF
:units
  mass 1
  length 1
  angle deg
:documentation
  ASF file generated by Kaydara
:root
  axis xyz
  order  tx ty tz rx ry rz
  position 0 0 0
  orientation 0 0 0
:bonedata
  begin
    id 1
    name RightUpLegDummy
    direction -0.718183 -0.695806 0.00816078
    length 4.904
    axis 0 0 0 xyz
  end
  begin
    id 2
    name RightUpLeg
    direction 3.53989e-006 -0.995788 0.0916897
    length 17.4976
    axis -3.49089 -0.000906621 0.000287158 xyz
    dof rx ry rz
  end
  begin
    id 3
    name RightLeg
    direction 0.00371093 -0.995096 -0.0988418
    length 16.5821
    axis 3.68512 0.0193738 -0.131023 xyz
    dof rx ry rz
  end
  begin
    id 4
    name RightFoot
    direction 0.000791514 -0.46099 0.887405
    length 3.77069
    axis 4.84075e-005 -0.120479 -0.188788 xyz
    dof rx ry rz
  end
  begin
    id 5
    name RightToes
    direction 0.00124746 -0.014064 0.9999
    length 3.85082
    axis 0.00048216 0.542163 -0.142577 xyz
    dof rx ry rz
  end
  begin
    id 6
    name SpineDummy
    direction 8.36599e-015 1 5.97571e-016
    length 4.6813
    axis 0 0 0 xyz
  end
  begin
    id 7
    name Spine
    direction -4.63632e-008 0.999988 0.00495137
    length 10.1015
    axis -0.00138897 0.000121419 3.25764e-006 xyz
    dof rx ry rz
  end
  begin
    id 8
    name Spine1
    direction 0 0 0
    length 0
    axis -0.00138896 0.000121452 2.39764e-006 xyz
    dof rx ry rz
  end
  begin
    id 9
    name HEadDummy
    direction -3.91456e-008 0.999999 0.00127422
    length 3.43865
    axis -0.00138896 0.000121452 2.39764e-006 xyz
  end
  begin
    id 10
    name HEad
    direction -0.0222688 0.980941 0.193023
    length 5.12695
    axis -0.00138895 0.000121452 2.39764e-006 xyz
    dof rx ry rz
  end
  begin
    id 11
    name LeftShoulder1Dummy
    direction 0.998891 -0.0402508 -0.0244456
    length 3.5433
    axis -0.00138896 0.000121452 2.39764e-006 xyz
  end
  begin
    id 12
    name LeftShoulder1
    direction 0.99951 -0.000327743 0.0313091
    length 4.05031
    axis -0.00138896 0.000121452 2.39764e-006 xyz
    dof rx ry rz
  end
  begin
    id 13
    name LeftArm
    direction 0.998561 -0.00100054 -0.0536182
    length 10.3537
    axis -23.1894 0.134784 0.96751 xyz
    dof rx ry rz
  end
  begin
    id 14
    name LeftForeArm
    direction 0.998903 0.00866434 0.046012
    length 8.70632
    axis -9.91835 -0.06569 -0.177792 xyz
    dof rx ry rz
  end
  begin
    id 15
    name LeftHand
    direction 0.992938 -0.0411636 0.11126
    length 5.32135
    axis -0.00960227 -0.00340091 0.185174 xyz
    dof rx ry rz
  end
  begin
    id 16
    name RightShoulderDummy
    direction -0.998891 -0.0402509 -0.0244414
    length 3.5433
    axis -0.00138896 0.000121452 2.39764e-006 xyz
  end
  begin
    id 17
    name RightShoulder
    direction -0.99951 -0.000327827 0.0313133
    length 4.05031
    axis 0.215806 0.000203644 -0.00680151 xyz
    dof rx ry rz
  end
  begin
    id 18
    name RightArm
    direction -0.998573 -0.000999583 -0.053403
    length 10.3947
    axis -23.2009 -0.134239 -0.9641 xyz
    dof rx ry rz
  end
  begin
    id 19
    name RightForeArm
    direction -0.998898 0.00868026 0.0461306
    length 8.68355
    axis -9.92322 0.0658061 0.178869 xyz
    dof rx ry rz
  end
  begin
    id 20
    name RightHand
    direction -0.992843 -0.0414603 0.112003
    length 5.28593
    axis -0.00960634 0.00330671 -0.185226 xyz
    dof rx ry rz
  end
  begin
    id 21
    name LeftUpLegDummy
    direction 0.718183 -0.695806 0.00816078
    length 4.904
    axis 0 0 0 xyz
  end
  begin
    id 22
    name LeftUpLeg
    direction -6.8115e-006 -0.995793 0.0916336
    length 17.4976
    axis -3.48766 0.00143441 -0.000523914 xyz
    dof rx ry rz
  end
  begin
    id 23
    name LeftLeg
    direction -0.00601357 -0.995091 -0.0987824
    length 16.5821
    axis 3.68177 -0.00654038 -0.00028478 xyz
    dof rx ry rz
  end
  begin
    id 24
    name LeftFoot
    direction -0.00417578 -0.460984 0.887399
    length 3.77069
    axis 1.87232e-006 4.66002e-005 -8.1837e-006 xyz
    dof rx ry rz
  end
  begin
    id 25
    name LeftToes
    direction 0.00818058 -0.00485161 0.999955
    length 3.85048
    axis 1.06246e-005 4.65855e-005 -8.18502e-006 xyz
    dof rx ry rz
  end
:hierarchy
  begin
    root RightUpLegDummy SpineDummy LeftUpLegDummy
    RightUpLegDummy RightUpLeg
    RightUpLeg RightLeg
    RightLeg RightFoot
    RightFoot RightToes
    SpineDummy Spine
    Spine Spine1
    Spine1 HEadDummy LeftShoulder1Dummy RightShoulderDummy
    HEadDummy HEad
    LeftShoulder1Dummy LeftShoulder1
    LeftShoulder1 LeftArm
    LeftArm LeftForeArm
    LeftForeArm LeftHand
    RightShoulderDummy RightShoulder
    RightShoulder RightArm
    RightArm RightForeArm
    RightForeArm RightHand
    LeftUpLegDummy LeftUpLeg
    LeftUpLeg LeftLeg
    LeftLeg LeftFoot
    LeftFoot LeftToes
  end

:SAMPLES-PER-SECOND 30
:FULLY-SPECIFIED
:DEGREES
1
root  -5.36392 40.9346 0.419993 163.987 -88.6121 -164.002
RightUpLeg  4.02998 -1.88466 -1.85728
RightLeg  -2.99515 -23.4137 1.45677
RightFoot  0.275826 -0.35188 3.39618
RightToes  -3.11842e-008 1.75238e-005 3.56266e-009
Spine  -2.54794 -0.15845 -0.785334
Spine1  3.40576 -0.0212858 -0.559604
HEad  -1.36066 -5.18662 2.7058
LeftShoulder1  0.0973051 2.44431 0.309466
LeftArm  -51.5991 -4.11843 4.05546
LeftForeArm  52.6594 4.25123 6.08217
LeftHand  -0.183048 -1.42109 3.26611
RightShoulder  0.219092 -1.41914 2.37213
RightArm  -42.1801 2.73684 -2.11256
RightForeArm  34.1123 -2.09421 0.82664
RightHand  0.189766 3.75882 2.14897
LeftUpLeg  4.19491 1.27138 2.50851
LeftLeg  -2.29463 18.7941 -0.635866
LeftFoot  -0.559988 0.252352 -2.63546
LeftToes  4.78904e-008 1.4679e-008 1.35657e-009
2
root  -5.35931 40.9346 0.419993 165.053 -88.5689 -165.084
RightUpLeg  3.97476 -1.90966 -1.89942
RightLeg  -2.82197 -23.2333 1.39035
RightFoot  0.232348 -0.354473 3.43641
RightToes  -3.11842e-008 1.75238e-005 3.56266e-009
Spine  -2.70129 -0.106165 -0.616296
Spine1  3.64349 0.0488386 -0.664036
HEad  -1.53306 -4.62144 2.91934
LeftShoulder1  0.0973051 2.38686 0.11813
LeftArm  -51.5219 -4.12676 4.19378
LeftForeArm  52.3619 4.27831 5.97758
LeftHand  -0.178923 -1.17166 3.30069
RightShoulder  0.216254 -1.4319 2.28897
RightArm  -42.2628 2.87904 -1.98693
RightForeArm  33.8214 -2.08747 0.802396
RightHand  0.170976 3.5265 1.97189
LeftUpLeg  4.23532 1.25211 2.47962
LeftLeg  -2.34916 18.8633 -0.654343
LeftFoot  -0.530089 0.250312 -2.60374
LeftToes  4.78904e-008 1.4679e-008 1.35657e-009
3
root  -5.35036 40.9346 0.419993 166.943 -88.5106 -167
RightUpLeg  3.92886 -1.91281 -1.9278
RightLeg  -2.7141 -23.1523 1.31891
RightFoot  0.223926 -0.355724 3.45583
RightToes  -3.11842e-008 1.75238e-005 3.56266e-009
Spine  -2.66096 -0.0423199 -0.456312
Spine1  3.56144 0.137096 -0.814211
HEad  -1.14027 -4.29912 2.75124
LeftShoulder1  0.0934072 2.37105 0.0977704
LeftArm  -51.8497 -4.25417 4.15141
LeftForeArm  52.3086 4.23038 6.25665
LeftHand  -0.206254 -0.945201 3.89538
RightShoulder  0.244508 -1.16908 2.32783
RightArm  -42.1378 2.76612 -2.15836
RightForeArm  33.3946 -2.10123 0.909042
RightHand  0.116006 3.0324 1.37561
LeftUpLeg  4.26598 1.25587 2.45323
LeftLeg  -2.36911 18.9332 -0.686643
LeftFoot  -0.503297 0.25237 -2.63574
LeftToes  4.78904e-008 1.4679e-008 1.35657e-009
4
root  -5.34309 40.9346 0.419993 166.172 -88.5978 -166.286
RightUpLeg  3.98774 -1.93619 -1.93926
RightLeg  -2.70208 -23.2082 1.32403
RightFoot  0.22065 -0.359619 3.51628
RightToes  -3.11842e-008 1.75238e-005 3.56266e-009
Spine  -2.65225 -0.0226985 -0.204418
Spine1  3.63899 0.198616 -1.07492
HEad  -1.08705 -4.00513 2.63765
LeftShoulder1  0.0794845 2.53284 0.30672
LeftArm  -52.1547 -4.5834 3.78274
LeftForeArm  52.635 4.17175 6.53437
LeftHand  -0.217278 -1.12967 4.00024
RightShoulder  0.236005 -1.23629 2.25443
RightArm  -42.1155 2.74966 -2.00712
RightForeArm  33.2068 -1.98581 0.938248
RightHand  0.122776 2.89057 1.50104
LeftUpLeg  4.2949 1.23914 2.44326
LeftLeg  -2.34911 18.8772 -0.657985
LeftFoot  -0.51848 0.254446 -2.66804
LeftToes  4.78904e-008 1.4679e-008 1.35657e-009
5
root  -5.33932 40.9341 0.419993 166.142 -88.7457 -166.279
RightUpLeg  4.02335 -1.98693 -1.98913
RightLeg  -2.69567 -23.2906 1.33788
RightFoot  0.197106 -0.361704 3.54863
RightToes  -3.11842e-008 1.75238e-005 3.56266e-009
Spine  -2.69747 -0.0306376 -0.141942
Spine1  3.68729 0.195295 -1.10608
HEad  -1.26538 -3.23784 2.94515
LeftShoulder1  0.0837808 2.47454 0.368498
LeftArm  -52.0214 -4.39798 3.61035
LeftForeArm  52.3788 4.1931 6.45546
LeftHand  -0.2218 -0.770118 4.28864
RightShoulder  0.23631 -1.24056 2.2929
RightArm  -42.4056 2.94128 -2.04307
RightForeArm  33.7259 -2.09605 0.711609
RightHand  0.142116 3.05449 1.72679
LeftUpLeg  4.2946 1.21942 2.41346
LeftLeg  -2.35109 18.7422 -0.660183
LeftFoot  -0.513318 0.254237 -2.6648
LeftToes  4.78904e-008 1.4679e-008 1.35657e-009
6
root  -5.33866 40.9309 0.419993 164.208 -88.8534 -164.433
RightUpLeg  4.14883 -2.01345 -1.9835
RightLeg  -2.72478 -23.3852 1.36884
RightFoot  0.170269 -0.356402 3.46635
RightToes  -3.11842e-008 1.75238e-005 3.56266e-009
Spine  -2.41111 -0.0117666 -0.105853
Spine1  3.24135 0.190362 -1.01727
HEad  -0.972078 -2.97392 2.77797
LeftShoulder1  0.117156 2.0875 0.20701
LeftArm  -51.7506 -4.04224 3.93093
LeftForeArm  51.9552 4.24578 6.2267
LeftHand  -0.203266 -0.27677 4.23545
RightShoulder  0.257039 -1.0217 2.19132
RightArm  -42.3307 2.73127 -2.1403
RightForeArm  33.7287 -2.04387 0.736439
RightHand  0.143503 2.92135 1.78318
LeftUpLeg  4.37347 1.31205 2.47249
LeftLeg  -2.33039 18.5376 -0.724196
LeftFoot  -0.577735 0.247155 -2.55462
LeftToes  4.78904e-008 1.4679e-008 1.35657e-009
7
root  -5.33111 40.926 0.419993 166.237 -88.935 -166.501
RightUpLeg  4.07688 -1.97886 -1.98651
RightLeg  -2.48885 -23.4889 1.16592
RightFoot  0.109155 -0.361216 3.54106
RightToes  -3.11842e-008 1.75238e-005 3.56266e-009
Spine  -2.48995 0.00228136 -0.108101
Spine1  3.44278 0.206334 -0.965384
HEad  -1.14916 -2.81846 2.95383
LeftShoulder1  0.119872 2.07151 0.0973101
LeftArm  -51.8075 -3.96792 4.05503
LeftForeArm  51.9483 4.24126 6.25324
LeftHand  -0.213297 -0.835873 4.09026
RightShoulder  0.259183 -0.985095 2.11268
RightArm  -42.5375 2.73018 -2.0185
RightForeArm  33.8033 -1.94484 0.584267
RightHand  0.161784 3.13032 1.97427
LeftUpLeg  4.52348 1.2547 2.39851
LeftLeg  -2.59807 18.5316 -0.810387
LeftFoot  -0.555639 0.23921 -2.43105
LeftToes  4.78904e-008 1.4679e-008 1.35657e-009
8
root  -5.32179 40.924 0.419993 169.924 -89.0391 -170.212
RightUpLeg  4.0592 -1.97462 -2.04949
RightLeg  -2.40607 -23.5812 1.08029
RightFoot  0.0935273 -0.366217 3.61868
RightToes  -3.11842e-008 1.75238e-005 3.56266e-009
Spine  -2.5636 0.00283452 0.0220239
Spine1  3.5854 0.260109 -1.27205
HEad  -1.48578 -2.48857 2.95575
LeftShoulder1  0.122012 2.0178 0.280589
LeftArm  -51.5979 -3.84947 4.02304
LeftForeArm  51.4721 4.28679 6.07213
LeftHand  -0.189926 0.0304932 4.14389
RightShoulder  0.288481 -0.776186 2.44359
RightArm  -42.2235 2.54916 -2.47829
RightForeArm  33.403 -1.92009 0.865574
RightHand  0.151511 3.15372 1.82507
LeftUpLeg  4.36077 1.19929 2.30183
LeftLeg  -2.27967 18.5124 -0.688383
LeftFoot  -0.510251 0.249109 -2.58502
LeftToes  4.78904e-008 1.4679e-008 1.35657e-009
9
root  -5.31426 40.9225 0.419993 171.75 -89.1556 -172.039
RightUpLeg  3.99719 -2.00111 -2.08816
RightLeg  -2.2577 -23.6671 1.01116
RightFoot  0.024287 -0.366429 3.62196
RightToes  -3.11842e-008 1.75238e-005 3.56266e-009
Spine  -2.6111 0.00673114 0.0316779
Spine1  3.66178 0.266516 -1.27028
HEad  -1.51002 -2.48869 2.90399
LeftShoulder1  0.120208 2.03342 0.3221
LeftArm  -51.5623 -3.90814 3.97926
LeftForeArm  51.2079 4.30428 6.01498
LeftHand  -0.167983 0.411031 3.90843
RightShoulder  0.300907 -0.702155 2.63186
RightArm  -42.3271 2.60011 -2.66546
RightForeArm  33.3234 -1.90514 0.824649
RightHand  0.14098 2.91163 1.75024
LeftUpLeg  4.3353 1.16654 2.25333
LeftLeg  -2.26344 18.4318 -0.686336
LeftFoot  -0.542374 0.24814 -2.56995
LeftToes  4.78904e-008 1.4679e-008 1.35657e-009
10
root  -5.31011 40.9217 0.421997 173.638 -89.2036 -173.998
RightUpLeg  4.03505 -2.00635 -2.11432
RightLeg  -2.17145 -23.6778 0.939286
RightFoot  -0.0178185 -0.36927 3.66606
RightToes  -3.11842e-008 1.75238e-005 3.56266e-009
Spine  -2.57258 0.0711075 0.113035
Spine1  3.69179 0.334281 -1.29396
HEad  -1.65446 -2.52446 2.78127
LeftShoulder1  0.135154 1.88445 0.123459
LeftArm  -51.9769 -4.10274 4.1403
LeftForeArm  51.9284 4.21703 6.39313
LeftHand  -0.169098 0.143695 3.75795
RightShoulder  0.289597 -0.768407 2.45285
RightArm  -42.6308 2.64153 -2.44786
RightForeArm  33.9183 -2.04745 0.51667
RightHand  0.161385 3.32129 1.912
LeftUpLeg  4.40622 1.15861 2.21665
LeftLeg  -2.29323 18.4052 -0.699029
LeftFoot  -0.513077 0.244826 -2.5184
LeftToes  4.78904e-008 1.4679e-008 1.35657e-009
11
root  -5.30491 40.9213 0.426598 170.862 -89.3764 -171.313
RightUpLeg  4.11076 -2.03097 -2.11306
RightLeg  -2.08767 -23.8298 0.913389
RightFoot  -0.0640118 -0.372175 3.71114
RightToes  -3.11842e-008 1.75238e-005 3.56266e-009
Spine  -2.50739 0.00834666 0.183773
Spine1  3.76647 0.258163 -1.26065
HEad  -1.86857 -2.46797 2.75599
LeftShoulder1  0.133511 1.93341 -0.0485296
LeftArm  -51.7646 -3.98944 4.24272
LeftForeArm  52.1421 4.24082 6.22461
LeftHand  -0.197117 -0.258056 4.11396
RightShoulder  0.272862 -0.880381 2.2443
RightArm  -42.4813 2.72572 -2.16624
RightForeArm  33.513 -1.9271 0.668987
RightHand  0.155379 3.15165 1.87678
LeftUpLeg  4.40813 1.16279 2.2253
LeftLeg  -2.15145 18.2317 -0.637472
LeftFoot  -0.559293 0.244999 -2.52109
LeftToes  4.78904e-008 1.4679e-008 1.35657e-009
